{
  "accessors": [
    {
      "bufferView": 2,
      "componentType": 5126,
      "count": 13424,
      "max": [
        0.2541010081768036,
        -37.378143310546875,
        13.508576393127441
      ],
      "min": [
        -12.817111015319824,
        -62.170101165771484,
        0.13561899960041046
      ],
      "type": "VEC3"
    },
    {
      "bufferView": 2,
      "byteOffset": 161088,
      "componentType": 5126,
      "count": 13424,
      "max": [
        1.0,
        1.0,
        1.0
      ],
      "min": [
        -1.0,
        -1.0,
        -1.0
      ],
      "type": "VEC3"
    },
    {
      "bufferView": 3,
      "componentType": 5126,
      "count": 13424,
      "max": [
        1.0,
        1.0,
        1.0,
        1.0
      ],
      "min": [
        -1.0,
        -1.0,
        -1.0,
        1.0
      ],
      "type": "VEC4"
    },
    {
      "bufferView": 1,
      "componentType": 5126,
      "count": 13424,
      "max": [
        0.9955399036407471,
        0.9943174719810486
      ],
      "min": [
        0.004398901015520096,
        0.008156448602676392
      ],
      "type": "VEC2"
    },
    {
      "bufferView": 0,
      "componentType": 5125,
      "count": 22842,
      "type": "SCALAR"
    }
  ],
  "asset": {
    "extras": {
      "author": "Artyom (https://sketchfab.com/Art62)",
      "license": "CC-BY-4.0 (http://creativecommons.org/licenses/by/4.0/)",
      "source": "https://sketchfab.com/3d-models/hostel-15a07825c6bb436fa7a84f95fe06daa4",
      "title": "Hostel"
    },
    "generator": "Sketchfab-12.67.0",
    "version": "2.0"
  },
  "bufferViews": [
    {
      "buffer": 0,
      "byteLength": 91368,
      "name": "floatBufferViews",
      "target": 34963
    },
    {
      "buffer": 0,
      "byteLength": 107392,
      "byteOffset": 91368,
      "byteStride": 8,
      "name": "floatBufferViews",
      "target": 34962
    },
    {
      "buffer": 0,
      "byteLength": 322176,
      "byteOffset": 198760,
      "byteStride": 12,
      "name": "floatBufferViews",
      "target": 34962
    },
    {
      "buffer": 0,
      "byteLength": 214784,
      "byteOffset": 520936,
      "byteStride": 16,
      "name": "floatBufferViews",
      "target": 34962
    }
  ],
  "buffers": [
    {
      "byteLength": 735720,
      "uri": "scene.bin"
    }
  ],
  "images": [
    {
      "uri": "textures/obch1_initialShadingGroup_baseColor.png"
    },
    {
      "uri": "textures/obch1_initialShadingGroup_metallicRoughness.png"
    },
    {
      "uri": "textures/obch1_initialShadingGroup_normal.png"
    }
  ],
  "materials": [
    {
      "doubleSided": true,
      "name": "obch1_initialShadingGroup",
      "normalTexture": {
        "index": 2
      },
      "pbrMetallicRoughness": {
        "baseColorTexture": {
          "index": 0
        },
        "metallicFactor": 0.1602515243902439,
        "metallicRoughnessTexture": {
          "index": 1
        },
        "roughnessFactor": 0.39195884146341464
      }
    }
  ],
  "meshes": [
    {
      "name": "polySurface732_obch1_initialShadingGroup_0",
      "primitives": [
        {
          "attributes": {
            "NORMAL": 1,
            "POSITION": 0,
            "TANGENT": 2,
            "TEXCOORD_0": 3
          },
          "indices": 4,
          "material": 0,
          "mode": 4
        }
      ]
    }
  ],
  "nodes": [
    {
      "children": [
        1
      ],
      "matrix": [
        1.0,
        0.0,
        0.0,
        0.0,
        0.0,
        2.220446049250313e-16,
        -1.0,
        0.0,
        0.0,
        1.0,
        2.220446049250313e-16,
        0.0,
        0.0,
        0.0,
        0.0,
        1.0
      ],
      "name": "Sketchfab_model"
    },
    {
      "children": [
        2
      ],
      "matrix": [
        1.0,
        0.0,
        0.0,
        0.0,
        0.0,
        0.0,
        1.0,
        0.0,
        0.0,
        -1.0,
        0.0,
        0.0,
        0.0,
        0.0,
        0.0,
        1.0
      ],
      "name": "6282e8c9897543b3a41f336203c11bf8.fbx"
    },
    {
      "children": [
        3
      ],
      "name": "RootNode"
    },
    {
      "children": [
        4
      ],
      "matrix": [
        1.0,
        0.0,
        0.0,
        0.0,
        0.0,
        2.220446049250313e-16,
        -1.0,
        0.0,
        0.0,
        1.0,
        2.220446049250313e-16,
        0.0,
        10.969764709472656,
        0.0,
        -53.61430358886719,
        1.0
      ],
      "name": "polySurface732"
    },
    {
      "mesh": 0,
      "name": "polySurface732_obch1_initialShadingGroup_0"
    }
  ],
  "samplers": [
    {
      "magFilter": 9729,
      "minFilter": 9987,
      "wrapS": 10497,
      "wrapT": 10497
    }
  ],
  "scene": 0,
  "scenes": [
    {
      "name": "Sketchfab_Scene",
      "nodes": [
        0
      ]
    }
  ],
  "textures": [
    {
      "sampler": 0,
      "source": 0
    },
    {
      "sampler": 0,
      "source": 1
    },
    {
      "sampler": 0,
      "source": 2
    }
  ]
}
