{
  "accessors": [
    {
      "bufferView": 2,
      "componentType": 5126,
      "count": 21655,
      "max": [
        20.120534896850586,
        58.61276626586914,
        142.91171264648438
      ],
      "min": [
        -119.0473861694336,
        20.46485710144043,
        10.1997709274292
      ],
      "type": "VEC3"
    },
    {
      "bufferView": 2,
      "byteOffset": 259860,
      "componentType": 5126,
      "count": 21655,
      "max": [
        0.9999936819076538,
        0.9988000988960266,
        0.9999977350234985
      ],
      "min": [
        -0.9999972581863403,
        -0.9999995231628418,
        -0.9999984502792358
      ],
      "type": "VEC3"
    },
    {
      "bufferView": 3,
      "componentType": 5126,
      "count": 21655,
      "max": [
        0.9843137264251709,
        0.95686274766922,
        0.9137254953384399,
        1.0
      ],
      "min": [
        0.0,
        0.0117647061124444,
        0.0,
        1.0
      ],
      "type": "VEC4"
    },
    {
      "bufferView": 1,
      "componentType": 5126,
      "count": 21655,
      "max": [
        0.9927390217781067,
        0.9999930262565613
      ],
      "min": [
        3.899999865097925e-05,
        3.999999989900971e-06
      ],
      "type": "VEC2"
    },
    {
      "bufferView": 0,
      "componentType": 5125,
      "count": 68490,
      "type": "SCALAR"
    },
    {
      "bufferView": 2,
      "byteOffset": 519720,
      "componentType": 5126,
      "count": 25068,
      "max": [
        20.251468658447266,
        59.25566482543945,
        143.06629943847656
      ],
      "min": [
        -118.92151641845703,
        19.5430908203125,
        10.174835205078125
      ],
      "type": "VEC3"
    },
    {
      "bufferView": 2,
      "byteOffset": 820536,
      "componentType": 5126,
      "count": 25068,
      "max": [
        0.9999903440475464,
        0.9993706941604614,
        0.999998152256012
      ],
      "min": [
        -0.9999929070472717,
        -0.9999996423721313,
        -0.9999972581863403
      ],
      "type": "VEC3"
    },
    {
      "bufferView": 3,
      "byteOffset": 346480,
      "componentType": 5126,
      "count": 25068,
      "max": [
        0.9803921580314636,
        0.9647058844566345,
        0.9529411792755127,
        1.0
      ],
      "min": [
        0.003921568859368563,
        0.01568627543747425,
        0.0,
        1.0
      ],
      "type": "VEC4"
    },
    {
      "bufferView": 1,
      "byteOffset": 173240,
      "componentType": 5126,
      "count": 25068,
      "max": [
        0.9959620237350464,
        0.9999309778213501
      ],
      "min": [
        9.999999974752427e-07,
        3.600000127335079e-05
      ],
      "type": "VEC2"
    },
    {
      "bufferView": 0,
      "byteOffset": 273960,
      "componentType": 5125,
      "count": 81510,
      "type": "SCALAR"
    }
  ],
  "asset": {
    "extras": {
      "author": "Department of Physical Geography and GIS, Debrecen (https://sketchfab.com/geogis)",
      "license": "CC-BY-4.0 (http://creativecommons.org/licenses/by/4.0/)",
      "source": "https://sketchfab.com/3d-models/debreceni-egyetem-foepulet-517a026d961b435391ad6015626aba73",
      "title": "Debreceni Egyetem, Főépület"
    },
    "generator": "Sketchfab-12.65.0",
    "version": "2.0"
  },
  "bufferViews": [
    {
      "buffer": 0,
      "byteLength": 600000,
      "name": "floatBufferViews",
      "target": 34963
    },
    {
      "buffer": 0,
      "byteLength": 373784,
      "byteOffset": 600000,
      "byteStride": 8,
      "name": "floatBufferViews",
      "target": 34962
    },
    {
      "buffer": 0,
      "byteLength": 1121352,
      "byteOffset": 973784,
      "byteStride": 12,
      "name": "floatBufferViews",
      "target": 34962
    },
    {
      "buffer": 0,
      "byteLength": 747568,
      "byteOffset": 2095136,
      "byteStride": 16,
      "name": "floatBufferViews",
      "target": 34962
    }
  ],
  "buffers": [
    {
      "byteLength": 2842704,
      "uri": "scene.bin"
    }
  ],
  "extensionsUsed": [
    "KHR_materials_unlit"
  ],
  "images": [
    {
      "uri": "textures/Foep50e_baseColor.jpeg"
    },
    {
      "uri": "textures/Foep50e1_baseColor.jpeg"
    }
  ],
  "materials": [
    {
      "doubleSided": true,
      "extensions": {
        "KHR_materials_unlit": {}
      },
      "name": "Foep50e",
      "pbrMetallicRoughness": {
        "baseColorTexture": {
          "index": 0
        },
        "metallicFactor": 0.0
      }
    },
    {
      "doubleSided": true,
      "extensions": {
        "KHR_materials_unlit": {}
      },
      "name": "Foep50e1",
      "pbrMetallicRoughness": {
        "baseColorTexture": {
          "index": 1
        },
        "metallicFactor": 0.0
      }
    }
  ],
  "meshes": [
    {
      "name": "Object_0",
      "primitives": [
        {
          "attributes": {
            "COLOR_0": 2,
            "NORMAL": 1,
            "POSITION": 0,
            "TEXCOORD_0": 3
          },
          "indices": 4,
          "material": 0,
          "mode": 4
        }
      ]
    },
    {
      "name": "Object_1",
      "primitives": [
        {
          "attributes": {
            "COLOR_0": 7,
            "NORMAL": 6,
            "POSITION": 5,
            "TEXCOORD_0": 8
          },
          "indices": 9,
          "material": 1,
          "mode": 4
        }
      ]
    }
  ],
  "nodes": [
    {
      "children": [
        1
      ],
      "matrix": [
        0.576366662979126,
        -9.268682698553859e-17,
        1.6327138133262954e-16,
        0.0,
        -9.268682698553856e-17,
        -0.576366662979126,
        -2.559582159463174e-16,
        0.0,
        1.6327138133262957e-16,
        2.559582159463174e-16,
        -0.576366662979126,
        0.0,
        -2.1316282072803006e-14,
        116.01931762695311,
        37.220409393310575,
        1.0
      ],
      "name": "Sketchfab_model"
    },
    {
      "children": [
        2,
        3
      ],
      "name": "Foep50e.obj.cleaner.materialmerger.gles"
    },
    {
      "mesh": 0,
      "name": "Object_2"
    },
    {
      "mesh": 1,
      "name": "Object_3"
    }
  ],
  "samplers": [
    {
      "magFilter": 9729,
      "minFilter": 9987,
      "wrapS": 10497,
      "wrapT": 10497
    }
  ],
  "scene": 0,
  "scenes": [
    {
      "name": "Sketchfab_Scene",
      "nodes": [
        0
      ]
    }
  ],
  "textures": [
    {
      "sampler": 0,
      "source": 0
    },
    {
      "sampler": 0,
      "source": 1
    }
  ]
}
