{
  "accessors": [
    {
      "bufferView": 2,
      "componentType": 5126,
      "count": 3975,
      "max": [
        445.36895751953125,
        954.4254150390625,
        511.7550048828125
      ],
      "min": [
        -518.2427978515625,
        -0.682377815246582,
        -343.09710693359375
      ],
      "type": "VEC3"
    },
    {
      "bufferView": 2,
      "byteOffset": 47700,
      "componentType": 5126,
      "count": 3975,
      "max": [
        1.0,
        1.0,
        1.0
      ],
      "min": [
        -1.0,
        -1.0,
        -1.0
      ],
      "type": "VEC3"
    },
    {
      "bufferView": 3,
      "componentType": 5126,
      "count": 3975,
      "max": [
        1.0,
        1.0,
        1.0,
        1.0
      ],
      "min": [
        -1.0,
        -1.0,
        -1.0,
        -1.0
      ],
      "type": "VEC4"
    },
    {
      "bufferView": 1,
      "componentType": 5126,
      "count": 3975,
      "max": [
        0.9981114268302917,
        0.9976028203964233
      ],
      "min": [
        0.0018785623833537102,
        0.0018793422495946288
      ],
      "type": "VEC2"
    },
    {
      "bufferView": 0,
      "componentType": 5125,
      "count": 6453,
      "type": "SCALAR"
    }
  ],
  "asset": {
    "extras": {
      "author": "Artise1 (https://sketchfab.com/Artise1)",
      "license": "CC-BY-4.0 (http://creativecommons.org/licenses/by/4.0/)",
      "source": "https://sketchfab.com/3d-models/mg-building-asset-2992eb17776d4f43884a481cc0c22633",
      "title": "MG Building asset"
    },
    "generator": "Sketchfab-12.68.0",
    "version": "2.0"
  },
  "bufferViews": [
    {
      "buffer": 0,
      "byteLength": 25812,
      "name": "floatBufferViews",
      "target": 34963
    },
    {
      "buffer": 0,
      "byteLength": 31800,
      "byteOffset": 25812,
      "byteStride": 8,
      "name": "floatBufferViews",
      "target": 34962
    },
    {
      "buffer": 0,
      "byteLength": 95400,
      "byteOffset": 57612,
      "byteStride": 12,
      "name": "floatBufferViews",
      "target": 34962
    },
    {
      "buffer": 0,
      "byteLength": 63600,
      "byteOffset": 153012,
      "byteStride": 16,
      "name": "floatBufferViews",
      "target": 34962
    }
  ],
  "buffers": [
    {
      "byteLength": 216612,
      "uri": "scene.bin"
    }
  ],
  "images": [
    {
      "uri": "textures/UV_Map_baseColor.png"
    },
    {
      "uri": "textures/UV_Map_metallicRoughness.png"
    },
    {
      "uri": "textures/UV_Map_normal.png"
    }
  ],
  "materials": [
    {
      "doubleSided": true,
      "name": "UV_Map",
      "normalTexture": {
        "index": 2
      },
      "pbrMetallicRoughness": {
        "baseColorTexture": {
          "index": 0
        },
        "metallicRoughnessTexture": {
          "index": 1
        }
      }
    }
  ],
  "meshes": [
    {
      "name": "MG_BUILDING_ASSET_UV Map_0",
      "primitives": [
        {
          "attributes": {
            "NORMAL": 1,
            "POSITION": 0,
            "TANGENT": 2,
            "TEXCOORD_0": 3
          },
          "indices": 4,
          "material": 0,
          "mode": 4
        }
      ]
    }
  ],
  "nodes": [
    {
      "children": [
        1
      ],
      "matrix": [
        0.0081746531650424,
        0.0,
        0.0,
        0.0,
        0.0,
        1.8151376324309965e-18,
        -0.0081746531650424,
        0.0,
        0.0,
        0.0081746531650424,
        1.8151376324309965e-18,
        0.0,
        0.0,
        0.0,
        0.0,
        1.0
      ],
      "name": "Sketchfab_model"
    },
    {
      "children": [
        2
      ],
      "matrix": [
        1.0,
        0.0,
        0.0,
        0.0,
        0.0,
        0.0,
        1.0,
        0.0,
        0.0,
        -1.0,
        0.0,
        0.0,
        0.0,
        0.0,
        0.0,
        1.0
      ],
      "name": "9cb424adc7f047acad39aab0f43dd454.fbx"
    },
    {
      "children": [
        3
      ],
      "name": "RootNode"
    },
    {
      "children": [
        4
      ],
      "name": "MG_BUILDING_ASSET"
    },
    {
      "mesh": 0,
      "name": "MG_BUILDING_ASSET_UV Map_0"
    }
  ],
  "samplers": [
    {
      "magFilter": 9729,
      "minFilter": 9987,
      "wrapS": 10497,
      "wrapT": 10497
    }
  ],
  "scene": 0,
  "scenes": [
    {
      "name": "Sketchfab_Scene",
      "nodes": [
        0
      ]
    }
  ],
  "textures": [
    {
      "sampler": 0,
      "source": 0
    },
    {
      "sampler": 0,
      "source": 1
    },
    {
      "sampler": 0,
      "source": 2
    }
  ]
}
