{
  "accessors": [
    {
      "bufferView": 3,
      "componentType": 5126,
      "count": 17617,
      "max": [
        7.421319007873535,
        8.0,
        1.0000001192092896
      ],
      "min": [
        -7.421319007873535,
        -1.682055454921283e-07,
        -1.000001311302185
      ],
      "type": "VEC3"
    },
    {
      "bufferView": 3,
      "byteOffset": 211404,
      "componentType": 5126,
      "count": 17617,
      "max": [
        1.0,
        1.0,
        1.0
      ],
      "min": [
        -1.0,
        -1.0,
        -1.0
      ],
      "type": "VEC3"
    },
    {
      "bufferView": 4,
      "componentType": 5126,
      "count": 17617,
      "max": [
        1.0,
        0.00018060111324302852,
        1.0,
        1.0
      ],
      "min": [
        -1.0,
        -0.0001836524170357734,
        -1.0,
        1.0
      ],
      "type": "VEC4"
    },
    {
      "bufferView": 2,
      "componentType": 5126,
      "count": 17617,
      "max": [
        0.9998937249183655,
        0.9983746409416199
      ],
      "min": [
        0.0011890840250998735,
        0.004728687461465597
      ],
      "type": "VEC2"
    },
    {
      "bufferView": 1,
      "componentType": 5125,
      "count": 39816,
      "type": "SCALAR"
    },
    {
      "bufferView": 5,
      "componentType": 5126,
      "count": 5,
      "max": [
        1.0,
        0.0,
        2.3841850804728892e-07,
        0.0,
        0.0,
        1.0,
        1.0,
        0.0,
        0.0,
        5.684341886080802e-14,
        1.0,
        0.0,
        0.0,
        5.854310035705566,
        0.06999850273132324,
        1.0
      ],
      "min": [
        -8.288169467287276e-24,
        -1.0,
        -1.1202689677284906e-16,
        0.0,
        -8.89369147216712e-08,
        -1.0917276367053853e-14,
        0.0,
        0.0,
        -1.0,
        -1.6292067073209182e-07,
        -8.89369147216712e-08,
        0.0,
        -5.854310035705566,
        -0.020032405853271484,
        -3.3215255737304688,
        1.0
      ],
      "type": "MAT4"
    },
    {
      "bufferView": 0,
      "componentType": 5123,
      "count": 17617,
      "type": "VEC4"
    },
    {
      "bufferView": 4,
      "byteOffset": 281872,
      "componentType": 5126,
      "count": 17617,
      "max": [
        1.0,
        0.0,
        0.0,
        0.0
      ],
      "min": [
        0.0,
        0.0,
        0.0,
        0.0
      ],
      "type": "VEC4"
    },
    {
      "bufferView": 6,
      "componentType": 5126,
      "count": 120,
      "max": [
        5.0
      ],
      "min": [
        0.0416666679084301
      ],
      "type": "SCALAR"
    },
    {
      "bufferView": 8,
      "componentType": 5126,
      "count": 120,
      "max": [
        -1.2909865259536839e-15,
        1.1920925402364446e-07,
        -1.0829583452220959e-08,
        1.0
      ],
      "min": [
        -9.88159385428844e-08,
        -0.3706223964691162,
        -9.527319377866661e-08,
        0.928783655166626
      ],
      "type": "VEC4"
    },
    {
      "bufferView": 6,
      "byteOffset": 480,
      "componentType": 5126,
      "count": 58,
      "max": [
        5.0
      ],
      "min": [
        0.0416666679084301
      ],
      "type": "SCALAR"
    },
    {
      "bufferView": 7,
      "componentType": 5126,
      "count": 58,
      "max": [
        1.0,
        1.0,
        1.0
      ],
      "min": [
        0.9999998807907104,
        1.0,
        0.9999998807907104
      ],
      "type": "VEC3"
    },
    {
      "bufferView": 6,
      "byteOffset": 712,
      "componentType": 5126,
      "count": 109,
      "max": [
        5.0
      ],
      "min": [
        0.0416666679084301
      ],
      "type": "SCALAR"
    },
    {
      "bufferView": 7,
      "byteOffset": 696,
      "componentType": 5126,
      "count": 109,
      "max": [
        9.703635441837832e-07,
        3.3014931678771973,
        4.793546395376325e-07
      ],
      "min": [
        -4.601479588473012e-07,
        3.301492929458618,
        -4.743200179291307e-07
      ],
      "type": "VEC3"
    },
    {
      "bufferView": 6,
      "byteOffset": 1148,
      "componentType": 5126,
      "count": 11,
      "max": [
        5.0
      ],
      "min": [
        0.0416666679084301
      ],
      "type": "SCALAR"
    },
    {
      "bufferView": 8,
      "byteOffset": 1920,
      "componentType": 5126,
      "count": 11,
      "max": [
        -0.5000000596046448,
        0.5,
        0.5000000596046448,
        0.5000000596046448
      ],
      "min": [
        -0.5000000596046448,
        0.5,
        0.5,
        0.5
      ],
      "type": "VEC4"
    },
    {
      "bufferView": 6,
      "byteOffset": 1192,
      "componentType": 5126,
      "count": 91,
      "max": [
        5.0
      ],
      "min": [
        0.0416666679084301
      ],
      "type": "SCALAR"
    },
    {
      "bufferView": 7,
      "byteOffset": 2004,
      "componentType": 5126,
      "count": 91,
      "max": [
        1.0000001192092896,
        1.0000001192092896,
        0.9999998807907104
      ],
      "min": [
        0.9999998211860657,
        0.9999998211860657,
        0.9999998211860657
      ],
      "type": "VEC3"
    },
    {
      "bufferView": 6,
      "byteOffset": 1556,
      "componentType": 5126,
      "count": 114,
      "max": [
        5.0
      ],
      "min": [
        0.0416666679084301
      ],
      "type": "SCALAR"
    },
    {
      "bufferView": 7,
      "byteOffset": 3096,
      "componentType": 5126,
      "count": 114,
      "max": [
        4.781210236615152e-07,
        4.920434951782227,
        2.3323971731770143e-07
      ],
      "min": [
        -2.37134727854027e-07,
        4.92043399810791,
        -2.4359744088542357e-07
      ],
      "type": "VEC3"
    },
    {
      "bufferView": 6,
      "byteOffset": 2012,
      "componentType": 5126,
      "count": 118,
      "max": [
        5.0
      ],
      "min": [
        0.0416666679084301
      ],
      "type": "SCALAR"
    },
    {
      "bufferView": 8,
      "byteOffset": 2096,
      "componentType": 5126,
      "count": 118,
      "max": [
        7.173295025466805e-15,
        -7.570868376660655e-10,
        1.5658267571438955e-08,
        1.0
      ],
      "min": [
        -7.060122106351211e-15,
        -7.571010485207808e-10,
        -2.9045217786460853e-08,
        1.0
      ],
      "type": "VEC4"
    },
    {
      "bufferView": 6,
      "byteOffset": 2484,
      "componentType": 5126,
      "count": 83,
      "max": [
        5.0
      ],
      "min": [
        0.0416666679084301
      ],
      "type": "SCALAR"
    },
    {
      "bufferView": 7,
      "byteOffset": 4464,
      "componentType": 5126,
      "count": 83,
      "max": [
        1.0000001192092896,
        1.0000001192092896,
        1.0
      ],
      "min": [
        0.9999999403953552,
        0.9999999403953552,
        0.9999999403953552
      ],
      "type": "VEC3"
    }
  ],
  "animations": [
    {
      "channels": [
        {
          "sampler": 0,
          "target": {
            "node": 9,
            "path": "rotation"
          }
        },
        {
          "sampler": 1,
          "target": {
            "node": 9,
            "path": "scale"
          }
        },
        {
          "sampler": 2,
          "target": {
            "node": 10,
            "path": "translation"
          }
        },
        {
          "sampler": 3,
          "target": {
            "node": 10,
            "path": "rotation"
          }
        },
        {
          "sampler": 4,
          "target": {
            "node": 10,
            "path": "scale"
          }
        },
        {
          "sampler": 5,
          "target": {
            "node": 11,
            "path": "translation"
          }
        },
        {
          "sampler": 6,
          "target": {
            "node": 11,
            "path": "rotation"
          }
        },
        {
          "sampler": 7,
          "target": {
            "node": 11,
            "path": "scale"
          }
        }
      ],
      "name": "Ar|Ar|ArmatureAction|Ar|ArmatureAction",
      "samplers": [
        {
          "input": 8,
          "interpolation": "LINEAR",
          "output": 9
        },
        {
          "input": 10,
          "interpolation": "LINEAR",
          "output": 11
        },
        {
          "input": 12,
          "interpolation": "LINEAR",
          "output": 13
        },
        {
          "input": 14,
          "interpolation": "LINEAR",
          "output": 15
        },
        {
          "input": 16,
          "interpolation": "LINEAR",
          "output": 17
        },
        {
          "input": 18,
          "interpolation": "LINEAR",
          "output": 19
        },
        {
          "input": 20,
          "interpolation": "LINEAR",
          "output": 21
        },
        {
          "input": 22,
          "interpolation": "LINEAR",
          "output": 23
        }
      ]
    }
  ],
  "asset": {
    "extras": {
      "author": "Periklis (https://sketchfab.com/periklis)",
      "license": "CC-BY-4.0 (http://creativecommons.org/licenses/by/4.0/)",
      "source": "https://sketchfab.com/3d-models/gate-1e247e6327d9446fbbc8078e00f32613",
      "title": "Gate"
    },
    "generator": "Sketchfab-12.67.0",
    "version": "2.0"
  },
  "bufferViews": [
    {
      "buffer": 0,
      "byteLength": 140936,
      "byteStride": 8,
      "name": "shortBufferViews",
      "target": 34962
    },
    {
      "buffer": 0,
      "byteLength": 159264,
      "byteOffset": 140936,
      "name": "floatBufferViews",
      "target": 34963
    },
    {
      "buffer": 0,
      "byteLength": 140936,
      "byteOffset": 300200,
      "byteStride": 8,
      "name": "floatBufferViews",
      "target": 34962
    },
    {
      "buffer": 0,
      "byteLength": 422808,
      "byteOffset": 441136,
      "byteStride": 12,
      "name": "floatBufferViews",
      "target": 34962
    },
    {
      "buffer": 0,
      "byteLength": 563744,
      "byteOffset": 863944,
      "byteStride": 16,
      "name": "floatBufferViews",
      "target": 34962
    },
    {
      "buffer": 0,
      "byteLength": 320,
      "byteOffset": 1427688,
      "name": "floatBufferViews"
    },
    {
      "buffer": 0,
      "byteLength": 2816,
      "byteOffset": 1428008,
      "name": "floatBufferViews"
    },
    {
      "buffer": 0,
      "byteLength": 5460,
      "byteOffset": 1430824,
      "byteStride": 12,
      "name": "floatBufferViews"
    },
    {
      "buffer": 0,
      "byteLength": 3984,
      "byteOffset": 1436284,
      "byteStride": 16,
      "name": "floatBufferViews"
    }
  ],
  "buffers": [
    {
      "byteLength": 1440268,
      "uri": "scene.bin"
    }
  ],
  "images": [
    {
      "uri": "textures/bkdGate_baseColor.png"
    },
    {
      "uri": "textures/bkdGate_metallicRoughness.png"
    },
    {
      "uri": "textures/bkdGate_normal.png"
    }
  ],
  "materials": [
    {
      "doubleSided": true,
      "name": "bkdGate",
      "normalTexture": {
        "index": 2
      },
      "pbrMetallicRoughness": {
        "baseColorTexture": {
          "index": 0
        },
        "metallicRoughnessTexture": {
          "index": 1
        }
      }
    }
  ],
  "meshes": [
    {
      "name": "Object_0",
      "primitives": [
        {
          "attributes": {
            "JOINTS_0": 6,
            "NORMAL": 1,
            "POSITION": 0,
            "TANGENT": 2,
            "TEXCOORD_0": 3,
            "WEIGHTS_0": 7
          },
          "indices": 4,
          "material": 0,
          "mode": 4
        }
      ]
    }
  ],
  "nodes": [
    {
      "children": [
        1
      ],
      "matrix": [
        1.0,
        0.0,
        0.0,
        0.0,
        0.0,
        2.220446049250313e-16,
        -1.0,
        0.0,
        0.0,
        1.0,
        2.220446049250313e-16,
        0.0,
        0.0,
        0.0,
        0.0,
        1.0
      ],
      "name": "Sketchfab_model"
    },
    {
      "children": [
        2
      ],
      "name": "root"
    },
    {
      "children": [
        3
      ],
      "matrix": [
        1.0,
        0.0,
        0.0,
        0.0,
        0.0,
        2.220446049250313e-16,
        1.0,
        0.0,
        0.0,
        -1.0,
        2.220446049250313e-16,
        0.0,
        0.0,
        0.0,
        0.0,
        1.0
      ],
      "name": "GLTF_SceneRootNode"
    },
    {
      "children": [
        4
      ],
      "name": "Ar_5"
    },
    {
      "children": [
        5,
        7,
        6
      ],
      "name": "GLTF_created_0"
    },
    {
      "children": [
        8
      ],
      "name": "GLTF_created_0_rootJoint"
    },
    {
      "name": "Gate_4"
    },
    {
      "mesh": 0,
      "name": "Object_7",
      "skin": 0
    },
    {
      "children": [
        9
      ],
      "name": "Bone.002_3"
    },
    {
      "children": [
        10
      ],
      "name": "Bone_2",
      "rotation": [
        0.0,
        1.1920925402364446e-07,
        0.0,
        1.0
      ],
      "translation": [
        5.854310035705566,
        0.020032405853271484,
        -0.06999989598989487
      ]
    },
    {
      "children": [
        11
      ],
      "name": "Bone.001_1",
      "rotation": [
        -0.5000000596046448,
        0.49999991059303284,
        0.4999999701976776,
        0.5000000596046448
      ],
      "translation": [
        1.668927041009738e-08,
        3.3014931678771973,
        2.517253960832022e-09
      ]
    },
    {
      "name": "Bone.001_end_0",
      "rotation": [
        5.658663161136457e-17,
        -7.570939430934231e-10,
        7.571046012344596e-10,
        1.0
      ],
      "translation": [
        1.283854689226871e-09,
        4.920434474945068,
        -5.178855566612128e-09
      ]
    }
  ],
  "samplers": [
    {
      "magFilter": 9729,
      "minFilter": 9987,
      "wrapS": 10497,
      "wrapT": 10497
    }
  ],
  "scene": 0,
  "scenes": [
    {
      "name": "Sketchfab_Scene",
      "nodes": [
        0
      ]
    }
  ],
  "skins": [
    {
      "inverseBindMatrices": 5,
      "joints": [
        5,
        8,
        9,
        10,
        11
      ],
      "skeleton": 5
    }
  ],
  "textures": [
    {
      "sampler": 0,
      "source": 0
    },
    {
      "sampler": 0,
      "source": 1
    },
    {
      "sampler": 0,
      "source": 2
    }
  ]
}
