{
  "accessors": [
    {
      "bufferView": 2,
      "componentType": 5126,
      "count": 6026,
      "max": [
        4.197379112243652,
        3.0488486289978027,
        5.167324066162109
      ],
      "min": [
        -4.078485488891602,
        -2.3149361610412598,
        -5.452279090881348
      ],
      "type": "VEC3"
    },
    {
      "bufferView": 2,
      "byteOffset": 72312,
      "componentType": 5126,
      "count": 6026,
      "max": [
        0.9986122250556946,
        0.9426144957542419,
        0.9988095760345459
      ],
      "min": [
        -0.9996721744537354,
        -0.9999438524246216,
        -0.9890226125717163
      ],
      "type": "VEC3"
    },
    {
      "bufferView": 1,
      "componentType": 5126,
      "count": 6026,
      "max": [
        0.9905766248703003,
        0.9910632371902466
      ],
      "min": [
        0.002973068505525589,
        0.009011000394821167
      ],
      "type": "VEC2"
    },
    {
      "bufferView": 0,
      "componentType": 5125,
      "count": 23325,
      "type": "SCALAR"
    },
    {
      "bufferView": 2,
      "byteOffset": 144624,
      "componentType": 5126,
      "count": 4966,
      "max": [
        4.004424571990967,
        2.7182488441467285,
        5.050207138061523
      ],
      "min": [
        -4.070514678955078,
        -2.325641632080078,
        -5.449715614318848
      ],
      "type": "VEC3"
    },
    {
      "bufferView": 2,
      "byteOffset": 204216,
      "componentType": 5126,
      "count": 4966,
      "max": [
        0.9991382360458374,
        0.8092755079269409,
        0.9998811483383179
      ],
      "min": [
        -0.9982565641403198,
        -0.9998248815536499,
        -0.9926464557647705
      ],
      "type": "VEC3"
    },
    {
      "bufferView": 1,
      "byteOffset": 48208,
      "componentType": 5126,
      "count": 4966,
      "max": [
        0.9912738800048828,
        0.991815984249115
      ],
      "min": [
        0.009008999913930893,
        0.010144585743546486
      ],
      "type": "VEC2"
    },
    {
      "bufferView": 0,
      "byteOffset": 93300,
      "componentType": 5125,
      "count": 19011,
      "type": "SCALAR"
    },
    {
      "bufferView": 2,
      "byteOffset": 263808,
      "componentType": 5126,
      "count": 5841,
      "max": [
        3.962556838989258,
        2.7170310020446777,
        4.81215763092041
      ],
      "min": [
        -4.094133377075195,
        -2.319465160369873,
        -5.453560829162598
      ],
      "type": "VEC3"
    },
    {
      "bufferView": 2,
      "byteOffset": 333900,
      "componentType": 5126,
      "count": 5841,
      "max": [
        0.9995936155319214,
        0.9020667672157288,
        0.9998481273651123
      ],
      "min": [
        -0.9960062503814697,
        -0.9999438524246216,
        -0.9974744915962219
      ],
      "type": "VEC3"
    },
    {
      "bufferView": 1,
      "byteOffset": 87936,
      "componentType": 5126,
      "count": 5841,
      "max": [
        0.9916660189628601,
        0.9918090105056763
      ],
      "min": [
        0.008290000259876251,
        0.008364000357687473
      ],
      "type": "VEC2"
    },
    {
      "bufferView": 0,
      "byteOffset": 169344,
      "componentType": 5125,
      "count": 18456,
      "type": "SCALAR"
    },
    {
      "bufferView": 2,
      "byteOffset": 403992,
      "componentType": 5126,
      "count": 3049,
      "max": [
        4.102176189422607,
        2.722510814666748,
        5.057994842529297
      ],
      "min": [
        -3.7919435501098633,
        -2.0862536430358887,
        -5.050681114196777
      ],
      "type": "VEC3"
    },
    {
      "bufferView": 2,
      "byteOffset": 440580,
      "componentType": 5126,
      "count": 3049,
      "max": [
        0.9994035959243774,
        0.986286997795105,
        0.9973328113555908
      ],
      "min": [
        -0.9996721744537354,
        -0.9989479184150696,
        -0.9974744915962219
      ],
      "type": "VEC3"
    },
    {
      "bufferView": 1,
      "byteOffset": 134664,
      "componentType": 5126,
      "count": 3049,
      "max": [
        0.9916284084320068,
        0.9919229745864868
      ],
      "min": [
        0.008062000386416912,
        0.11519000679254532
      ],
      "type": "VEC2"
    },
    {
      "bufferView": 0,
      "byteOffset": 243168,
      "componentType": 5125,
      "count": 6069,
      "type": "SCALAR"
    }
  ],
  "asset": {
    "extras": {
      "author": "xtremederpie (https://sketchfab.com/xtremederpie)",
      "license": "CC-BY-4.0 (http://creativecommons.org/licenses/by/4.0/)",
      "source": "https://sketchfab.com/3d-models/rocks-on-ground-48b1cfe470e749a8810fae0bd9ebc19f",
      "title": "Rocks on Ground"
    },
    "generator": "Sketchfab-12.68.0",
    "version": "2.0"
  },
  "bufferViews": [
    {
      "buffer": 0,
      "byteLength": 267444,
      "name": "floatBufferViews",
      "target": 34963
    },
    {
      "buffer": 0,
      "byteLength": 159056,
      "byteOffset": 267444,
      "byteStride": 8,
      "name": "floatBufferViews",
      "target": 34962
    },
    {
      "buffer": 0,
      "byteLength": 477168,
      "byteOffset": 426500,
      "byteStride": 12,
      "name": "floatBufferViews",
      "target": 34962
    }
  ],
  "buffers": [
    {
      "byteLength": 903668,
      "uri": "scene.bin"
    }
  ],
  "images": [
    {
      "uri": "textures/Big_rocks_unshadowed_baseColor.jpeg"
    },
    {
      "uri": "textures/Big_rocks_unshadowed1_baseColor.jpeg"
    },
    {
      "uri": "textures/Big_rocks_unshadowed2_baseColor.jpeg"
    },
    {
      "uri": "textures/Big_rocks_unshadowed3_baseColor.jpeg"
    }
  ],
  "materials": [
    {
      "doubleSided": true,
      "name": "Big_rocks_unshadowed",
      "pbrMetallicRoughness": {
        "baseColorTexture": {
          "index": 0
        },
        "metallicFactor": 0.0
      }
    },
    {
      "doubleSided": true,
      "name": "Big_rocks_unshadowed1",
      "pbrMetallicRoughness": {
        "baseColorTexture": {
          "index": 1
        },
        "metallicFactor": 0.0
      }
    },
    {
      "doubleSided": true,
      "name": "Big_rocks_unshadowed2",
      "pbrMetallicRoughness": {
        "baseColorTexture": {
          "index": 2
        },
        "metallicFactor": 0.0
      }
    },
    {
      "doubleSided": true,
      "name": "Big_rocks_unshadowed3",
      "pbrMetallicRoughness": {
        "baseColorTexture": {
          "index": 3
        },
        "metallicFactor": 0.0
      }
    }
  ],
  "meshes": [
    {
      "name": "Object_0",
      "primitives": [
        {
          "attributes": {
            "NORMAL": 1,
            "POSITION": 0,
            "TEXCOORD_0": 2
          },
          "indices": 3,
          "material": 0,
          "mode": 4
        }
      ]
    },
    {
      "name": "Object_1",
      "primitives": [
        {
          "attributes": {
            "NORMAL": 5,
            "POSITION": 4,
            "TEXCOORD_0": 6
          },
          "indices": 7,
          "material": 1,
          "mode": 4
        }
      ]
    },
    {
      "name": "Object_2",
      "primitives": [
        {
          "attributes": {
            "NORMAL": 9,
            "POSITION": 8,
            "TEXCOORD_0": 10
          },
          "indices": 11,
          "material": 2,
          "mode": 4
        }
      ]
    },
    {
      "name": "Object_3",
      "primitives": [
        {
          "attributes": {
            "NORMAL": 13,
            "POSITION": 12,
            "TEXCOORD_0": 14
          },
          "indices": 15,
          "material": 3,
          "mode": 4
        }
      ]
    }
  ],
  "nodes": [
    {
      "children": [
        1
      ],
      "matrix": [
        1.0,
        0.0,
        0.0,
        0.0,
        0.0,
        2.220446049250313e-16,
        -1.0,
        0.0,
        0.0,
        1.0,
        2.220446049250313e-16,
        0.0,
        0.0,
        0.0,
        0.0,
        1.0
      ],
      "name": "Sketchfab_model"
    },
    {
      "children": [
        2
      ],
      "name": "root"
    },
    {
      "children": [
        3
      ],
      "matrix": [
        1.0,
        0.0,
        0.0,
        0.0,
        0.0,
        2.220446049250313e-16,
        1.0,
        0.0,
        0.0,
        -1.0,
        2.220446049250313e-16,
        0.0,
        0.0,
        0.0,
        0.0,
        1.0
      ],
      "name": "GLTF_SceneRootNode"
    },
    {
      "children": [
        4,
        5,
        6,
        7
      ],
      "matrix": [
        -0.1527200955223591,
        0.32629616235543585,
        0.9328490697083621,
        0.0,
        0.3127257833794698,
        -0.8794608187597737,
        0.35881924791750724,
        0.0,
        0.9374855501997555,
        0.3465248659165799,
        0.03227011726284623,
        0.0,
        0.6336551308631897,
        0.5908503532409668,
        1.0665171146392822,
        1.0
      ],
      "name": "Big rocks unshadowed_0"
    },
    {
      "mesh": 0,
      "name": "Object_4"
    },
    {
      "mesh": 1,
      "name": "Object_5"
    },
    {
      "mesh": 2,
      "name": "Object_6"
    },
    {
      "mesh": 3,
      "name": "Object_7"
    }
  ],
  "samplers": [
    {
      "magFilter": 9729,
      "minFilter": 9987,
      "wrapS": 10497,
      "wrapT": 10497
    }
  ],
  "scene": 0,
  "scenes": [
    {
      "name": "Sketchfab_Scene",
      "nodes": [
        0
      ]
    }
  ],
  "textures": [
    {
      "sampler": 0,
      "source": 0
    },
    {
      "sampler": 0,
      "source": 1
    },
    {
      "sampler": 0,
      "source": 2
    },
    {
      "sampler": 0,
      "source": 3
    }
  ]
}
