{
  "accessors": [
    {
      "bufferView": 2,
      "componentType": 5126,
      "count": 5462,
      "max": [
        0.5218830108642578,
        0.5218830108642578,
        0.06878399848937988
      ],
      "min": [
        -0.5218830108642578,
        -0.521884024143219,
        -0.0
      ],
      "type": "VEC3"
    },
    {
      "bufferView": 2,
      "byteOffset": 65544,
      "componentType": 5126,
      "count": 5462,
      "max": [
        1.0,
        1.0,
        0.12309928983449936
      ],
      "min": [
        -1.0,
        -1.0,
        -1.0
      ],
      "type": "VEC3"
    },
    {
      "bufferView": 1,
      "componentType": 5126,
      "count": 5462,
      "max": [
        0.0,
        0.0
      ],
      "min": [
        0.0,
        0.0
      ],
      "type": "VEC2"
    },
    {
      "bufferView": 0,
      "componentType": 5125,
      "count": 7689,
      "type": "SCALAR"
    },
    {
      "bufferView": 2,
      "byteOffset": 131088,
      "componentType": 5126,
      "count": 31066,
      "max": [
        0.5218830108642578,
        0.5218830108642578,
        0.07430399954319
      ],
      "min": [
        -0.5218830108642578,
        -0.5218830108642578,
        0.010743999853730202
      ],
      "type": "VEC3"
    },
    {
      "bufferView": 2,
      "byteOffset": 503880,
      "componentType": 5126,
      "count": 31066,
      "max": [
        0.9983665347099304,
        0.9939383864402771,
        0.9999994039535522
      ],
      "min": [
        -0.9998145699501038,
        -0.9979506731033325,
        -0.9983383417129517
      ],
      "type": "VEC3"
    },
    {
      "bufferView": 1,
      "byteOffset": 43696,
      "componentType": 5126,
      "count": 31066,
      "max": [
        0.9963279962539673,
        1.0043599605560303
      ],
      "min": [
        0.0013429999817162752,
        0.0021589999087154865
      ],
      "type": "VEC2"
    },
    {
      "bufferView": 0,
      "byteOffset": 30756,
      "componentType": 5125,
      "count": 155652,
      "type": "SCALAR"
    },
    {
      "bufferView": 2,
      "byteOffset": 876672,
      "componentType": 5126,
      "count": 17,
      "max": [
        0.5218830108642578,
        -0.1274069994688034,
        0.06276699900627136
      ],
      "min": [
        -0.20000800490379333,
        -0.5218830108642578,
        0.02724199928343296
      ],
      "type": "VEC3"
    },
    {
      "bufferView": 2,
      "byteOffset": 876876,
      "componentType": 5126,
      "count": 17,
      "max": [
        1.0,
        -0.0,
        9.999999747378752e-05
      ],
      "min": [
        -0.00019999999494757503,
        -1.0,
        -0.0003000000142492354
      ],
      "type": "VEC3"
    },
    {
      "bufferView": 1,
      "byteOffset": 292224,
      "componentType": 5126,
      "count": 17,
      "max": [
        0.0,
        0.0
      ],
      "min": [
        0.0,
        0.0
      ],
      "type": "VEC2"
    },
    {
      "bufferView": 0,
      "byteOffset": 653364,
      "componentType": 5125,
      "count": 24,
      "type": "SCALAR"
    },
    {
      "bufferView": 2,
      "byteOffset": 877080,
      "componentType": 5126,
      "count": 31728,
      "max": [
        0.5218830108642578,
        0.5218830108642578,
        0.07026500254869461
      ],
      "min": [
        -0.5218830108642578,
        -0.5218830108642578,
        0.009620999917387962
      ],
      "type": "VEC3"
    },
    {
      "bufferView": 2,
      "byteOffset": 1257816,
      "componentType": 5126,
      "count": 31728,
      "max": [
        0.9987751245498657,
        0.9959675669670105,
        0.9999982118606567
      ],
      "min": [
        -0.9990883469581604,
        -0.9995234608650208,
        -0.9825676679611206
      ],
      "type": "VEC3"
    },
    {
      "bufferView": 1,
      "byteOffset": 292360,
      "componentType": 5126,
      "count": 31728,
      "max": [
        1.9922319650650024,
        0.9996640086174011
      ],
      "min": [
        1.0021699666976929,
        0.0013150000013411045
      ],
      "type": "VEC2"
    },
    {
      "bufferView": 0,
      "byteOffset": 653460,
      "componentType": 5125,
      "count": 144984,
      "type": "SCALAR"
    },
    {
      "bufferView": 2,
      "byteOffset": 1638552,
      "componentType": 5126,
      "count": 26267,
      "max": [
        0.5218830108642578,
        0.5218830108642578,
        0.07005400210618973
      ],
      "min": [
        -0.5218830108642578,
        -0.521884024143219,
        0.009620999917387962
      ],
      "type": "VEC3"
    },
    {
      "bufferView": 2,
      "byteOffset": 1953756,
      "componentType": 5126,
      "count": 26267,
      "max": [
        0.99482262134552,
        0.9990056157112122,
        0.9999971389770508
      ],
      "min": [
        -0.9986886978149414,
        -0.9972733855247498,
        -0.9415842890739441
      ],
      "type": "VEC3"
    },
    {
      "bufferView": 1,
      "byteOffset": 546184,
      "componentType": 5126,
      "count": 26267,
      "max": [
        2.9960639476776123,
        1.0009020566940308
      ],
      "min": [
        2.001858949661255,
        0.0010529999854043126
      ],
      "type": "VEC2"
    },
    {
      "bufferView": 0,
      "byteOffset": 1233396,
      "componentType": 5125,
      "count": 97512,
      "type": "SCALAR"
    },
    {
      "bufferView": 2,
      "byteOffset": 2268960,
      "componentType": 5126,
      "count": 29091,
      "max": [
        0.5218830108642578,
        0.5218830108642578,
        0.07368899881839752
      ],
      "min": [
        -0.5218830108642578,
        -0.521884024143219,
        0.010011999867856503
      ],
      "type": "VEC3"
    },
    {
      "bufferView": 2,
      "byteOffset": 2618052,
      "componentType": 5126,
      "count": 29091,
      "max": [
        0.9955137968063354,
        0.9990056157112122,
        0.9999945163726807
      ],
      "min": [
        -0.9998010993003845,
        -0.9998797178268433,
        -0.9991858005523682
      ],
      "type": "VEC3"
    },
    {
      "bufferView": 1,
      "byteOffset": 756320,
      "componentType": 5126,
      "count": 29091,
      "max": [
        3.9998509883880615,
        1.0000430345535278
      ],
      "min": [
        3.0030770301818848,
        0.0008520000264979899
      ],
      "type": "VEC2"
    },
    {
      "bufferView": 0,
      "byteOffset": 1623444,
      "componentType": 5125,
      "count": 63054,
      "type": "SCALAR"
    }
  ],
  "asset": {
    "extras": {
      "author": "seeco (https://sketchfab.com/seeco)",
      "license": "CC-BY-NC-4.0 (http://creativecommons.org/licenses/by-nc/4.0/)",
      "source": "https://sketchfab.com/3d-models/ground-f5da7f95dfef41f49fa99f9d8acdca33",
      "title": "Ground"
    },
    "generator": "Sketchfab-12.68.0",
    "version": "2.0"
  },
  "bufferViews": [
    {
      "buffer": 0,
      "byteLength": 1875660,
      "name": "floatBufferViews",
      "target": 34963
    },
    {
      "buffer": 0,
      "byteLength": 989048,
      "byteOffset": 1875660,
      "byteStride": 8,
      "name": "floatBufferViews",
      "target": 34962
    },
    {
      "buffer": 0,
      "byteLength": 2967144,
      "byteOffset": 2864708,
      "byteStride": 12,
      "name": "floatBufferViews",
      "target": 34962
    }
  ],
  "buffers": [
    {
      "byteLength": 5831852,
      "uri": "scene.bin"
    }
  ],
  "images": [
    {
      "uri": "textures/miniTerrainX4.1001_baseColor.jpeg"
    },
    {
      "uri": "textures/miniTerrainX4.1002_baseColor.jpeg"
    },
    {
      "uri": "textures/miniTerrainX4.1003_baseColor.jpeg"
    },
    {
      "uri": "textures/miniTerrainX4.1004_baseColor.jpeg"
    }
  ],
  "materials": [
    {
      "name": "ground",
      "pbrMetallicRoughness": {
        "baseColorFactor": [
          0.1980232714,
          0.03773353,
          0.0055491267,
          1.0
        ],
        "metallicFactor": 0.0
      }
    },
    {
      "doubleSided": true,
      "name": "miniTerrainX4.1001",
      "pbrMetallicRoughness": {
        "baseColorTexture": {
          "index": 0
        },
        "metallicFactor": 0.0
      }
    },
    {
      "doubleSided": true,
      "name": "miniTerrainX4.1001_NONE",
      "pbrMetallicRoughness": {
        "baseColorTexture": {
          "index": 0
        },
        "metallicFactor": 0.0
      }
    },
    {
      "doubleSided": true,
      "name": "miniTerrainX4.1002",
      "pbrMetallicRoughness": {
        "baseColorTexture": {
          "index": 1
        },
        "metallicFactor": 0.0
      }
    },
    {
      "doubleSided": true,
      "name": "miniTerrainX4.1003",
      "pbrMetallicRoughness": {
        "baseColorTexture": {
          "index": 2
        },
        "metallicFactor": 0.0
      }
    },
    {
      "doubleSided": true,
      "name": "miniTerrainX4.1004",
      "pbrMetallicRoughness": {
        "baseColorTexture": {
          "index": 3
        },
        "metallicFactor": 0.0
      }
    }
  ],
  "meshes": [
    {
      "name": "Object_0",
      "primitives": [
        {
          "attributes": {
            "NORMAL": 1,
            "POSITION": 0,
            "TEXCOORD_0": 2
          },
          "indices": 3,
          "material": 0,
          "mode": 4
        }
      ]
    },
    {
      "name": "Object_1",
      "primitives": [
        {
          "attributes": {
            "NORMAL": 5,
            "POSITION": 4,
            "TEXCOORD_0": 6
          },
          "indices": 7,
          "material": 1,
          "mode": 4
        }
      ]
    },
    {
      "name": "Object_2",
      "primitives": [
        {
          "attributes": {
            "NORMAL": 9,
            "POSITION": 8,
            "TEXCOORD_0": 10
          },
          "indices": 11,
          "material": 2,
          "mode": 4
        }
      ]
    },
    {
      "name": "Object_3",
      "primitives": [
        {
          "attributes": {
            "NORMAL": 13,
            "POSITION": 12,
            "TEXCOORD_0": 14
          },
          "indices": 15,
          "material": 3,
          "mode": 4
        }
      ]
    },
    {
      "name": "Object_4",
      "primitives": [
        {
          "attributes": {
            "NORMAL": 17,
            "POSITION": 16,
            "TEXCOORD_0": 18
          },
          "indices": 19,
          "material": 4,
          "mode": 4
        }
      ]
    },
    {
      "name": "Object_5",
      "primitives": [
        {
          "attributes": {
            "NORMAL": 21,
            "POSITION": 20,
            "TEXCOORD_0": 22
          },
          "indices": 23,
          "material": 5,
          "mode": 4
        }
      ]
    }
  ],
  "nodes": [
    {
      "children": [
        1
      ],
      "matrix": [
        1.0,
        0.0,
        0.0,
        0.0,
        0.0,
        2.220446049250313e-16,
        -1.0,
        0.0,
        0.0,
        1.0,
        2.220446049250313e-16,
        0.0,
        0.0,
        0.0,
        0.0,
        1.0
      ],
      "name": "Sketchfab_model"
    },
    {
      "children": [
        2,
        3,
        4,
        5,
        6,
        7
      ],
      "name": "miniTerrainX4_EXTRUDE.obj.cleaner.materialmerger.gles"
    },
    {
      "mesh": 0,
      "name": "Object_2"
    },
    {
      "mesh": 1,
      "name": "Object_3"
    },
    {
      "mesh": 2,
      "name": "Object_4"
    },
    {
      "mesh": 3,
      "name": "Object_5"
    },
    {
      "mesh": 4,
      "name": "Object_6"
    },
    {
      "mesh": 5,
      "name": "Object_7"
    }
  ],
  "samplers": [
    {
      "magFilter": 9729,
      "minFilter": 9987,
      "wrapS": 10497,
      "wrapT": 10497
    }
  ],
  "scene": 0,
  "scenes": [
    {
      "name": "Sketchfab_Scene",
      "nodes": [
        0
      ]
    }
  ],
  "textures": [
    {
      "sampler": 0,
      "source": 0
    },
    {
      "sampler": 0,
      "source": 1
    },
    {
      "sampler": 0,
      "source": 2
    },
    {
      "sampler": 0,
      "source": 3
    }
  ]
}
