{
  "accessors": [
    {
      "bufferView": 1,
      "componentType": 5126,
      "count": 191,
      "max": [
        1.0,
        1.0,
        2.290879964828491
      ],
      "min": [
        -22.423900604248047,
        -50.2552490234375,
        -1.0
      ],
      "type": "VEC3"
    },
    {
      "bufferView": 1,
      "byteOffset": 2292,
      "componentType": 5126,
      "count": 191,
      "max": [
        0.9933074116706848,
        0.9045413136482239,
        0.9982832074165344
      ],
      "min": [
        -1.0,
        -0.9045413136482239,
        -0.9968538880348206
      ],
      "type": "VEC3"
    },
    {
      "bufferView": 0,
      "componentType": 5125,
      "count": 696,
      "type": "SCALAR"
    },
    {
      "bufferView": 1,
      "byteOffset": 4584,
      "componentType": 5126,
      "count": 143,
      "max": [
        1.0,
        1.0,
        2.290879964828491
      ],
      "min": [
        -1.0,
        -50.2552490234375,
        -0.6404100060462952
      ],
      "type": "VEC3"
    },
    {
      "bufferView": 1,
      "byteOffset": 6300,
      "componentType": 5126,
      "count": 143,
      "max": [
        0.9045413136482239,
        0.9045413136482239,
        0.9045413732528687
      ],
      "min": [
        -0.7071068286895752,
        -0.9045413136482239,
        -0.7071068286895752
      ],
      "type": "VEC3"
    },
    {
      "bufferView": 0,
      "byteOffset": 2784,
      "componentType": 5125,
      "count": 468,
      "type": "SCALAR"
    },
    {
      "bufferView": 1,
      "byteOffset": 8016,
      "componentType": 5126,
      "count": 369,
      "max": [
        0.9074900150299072,
        0.9327700138092041,
        0.0
      ],
      "min": [
        -0.9074900150299072,
        -0.9376299977302551,
        0.0
      ],
      "type": "VEC3"
    },
    {
      "bufferView": 1,
      "byteOffset": 12444,
      "componentType": 5126,
      "count": 369,
      "max": [
        0.0005399999208748341,
        0.0009799995459616184,
        1.0
      ],
      "min": [
        -0.0005399999208748341,
        -0.0011099992552772164,
        0.9999994039535522
      ],
      "type": "VEC3"
    },
    {
      "bufferView": 0,
      "byteOffset": 4656,
      "componentType": 5125,
      "count": 528,
      "type": "SCALAR"
    },
    {
      "bufferView": 1,
      "byteOffset": 16872,
      "componentType": 5126,
      "count": 226,
      "max": [
        0.9175900220870972,
        0.9487000107765198,
        0.0
      ],
      "min": [
        -0.9175900220870972,
        -0.9540600180625916,
        0.0
      ],
      "type": "VEC3"
    },
    {
      "bufferView": 1,
      "byteOffset": 19584,
      "componentType": 5126,
      "count": 226,
      "max": [
        0.0,
        0.0,
        1.0
      ],
      "min": [
        0.0,
        0.0,
        -1.0
      ],
      "type": "VEC3"
    },
    {
      "bufferView": 0,
      "byteOffset": 6768,
      "componentType": 5125,
      "count": 651,
      "type": "SCALAR"
    },
    {
      "bufferView": 1,
      "byteOffset": 22296,
      "componentType": 5126,
      "count": 191,
      "max": [
        1.0,
        1.0,
        2.290879964828491
      ],
      "min": [
        -22.423900604248047,
        -50.2552490234375,
        -1.0
      ],
      "type": "VEC3"
    },
    {
      "bufferView": 1,
      "byteOffset": 24588,
      "componentType": 5126,
      "count": 191,
      "max": [
        0.9933074116706848,
        0.9045413136482239,
        0.9982832074165344
      ],
      "min": [
        -1.0,
        -0.9045413136482239,
        -0.9968538880348206
      ],
      "type": "VEC3"
    },
    {
      "bufferView": 0,
      "byteOffset": 9372,
      "componentType": 5125,
      "count": 696,
      "type": "SCALAR"
    },
    {
      "bufferView": 1,
      "byteOffset": 26880,
      "componentType": 5126,
      "count": 143,
      "max": [
        1.0,
        1.0,
        2.290879964828491
      ],
      "min": [
        -1.0,
        -50.2552490234375,
        -0.6404100060462952
      ],
      "type": "VEC3"
    },
    {
      "bufferView": 1,
      "byteOffset": 28596,
      "componentType": 5126,
      "count": 143,
      "max": [
        0.9045413136482239,
        0.9045413136482239,
        0.9045413732528687
      ],
      "min": [
        -0.7071068286895752,
        -0.9045413136482239,
        -0.7071068286895752
      ],
      "type": "VEC3"
    },
    {
      "bufferView": 0,
      "byteOffset": 12156,
      "componentType": 5125,
      "count": 468,
      "type": "SCALAR"
    }
  ],
  "asset": {
    "extras": {
      "author": "aburron Albatraes (https://sketchfab.com/aburronDev)",
      "license": "CC-BY-4.0 (http://creativecommons.org/licenses/by/4.0/)",
      "source": "https://sketchfab.com/3d-models/football-field-9a692f6fc9274a3192186424a1c9876d",
      "title": "Football Field"
    },
    "generator": "Sketchfab-12.68.0",
    "version": "2.0"
  },
  "bufferViews": [
    {
      "buffer": 0,
      "byteLength": 14028,
      "name": "floatBufferViews",
      "target": 34963
    },
    {
      "buffer": 0,
      "byteLength": 30312,
      "byteOffset": 14028,
      "byteStride": 12,
      "name": "floatBufferViews",
      "target": 34962
    }
  ],
  "buffers": [
    {
      "byteLength": 44340,
      "uri": "scene.bin"
    }
  ],
  "materials": [
    {
      "doubleSided": true,
      "name": "BandaBlanca",
      "pbrMetallicRoughness": {
        "metallicFactor": 0.0,
        "roughnessFactor": 0.0
      }
    },
    {
      "doubleSided": true,
      "name": "BandaRoja",
      "pbrMetallicRoughness": {
        "baseColorFactor": [
          0.4851499400560704,
          0.0,
          0.0047769534806937014,
          1.0
        ],
        "metallicFactor": 0.0,
        "roughnessFactor": 0.0
      }
    },
    {
      "doubleSided": true,
      "name": "Field",
      "pbrMetallicRoughness": {
        "baseColorFactor": [
          0.04970656598412728,
          0.7991027380144079,
          0.12477181756095057,
          1.0
        ],
        "metallicFactor": 0.0,
        "roughnessFactor": 0.0
      }
    },
    {
      "doubleSided": true,
      "name": "LineBorders",
      "pbrMetallicRoughness": {
        "metallicFactor": 0.05,
        "roughnessFactor": 0.6
      }
    },
    {
      "doubleSided": true,
      "name": "BandaBlanca.001",
      "pbrMetallicRoughness": {
        "metallicFactor": 0.0,
        "roughnessFactor": 0.0
      }
    },
    {
      "doubleSided": true,
      "name": "BandaRoja.001",
      "pbrMetallicRoughness": {
        "baseColorFactor": [
          0.4851499400560704,
          0.0,
          0.0047769534806937014,
          1.0
        ],
        "roughnessFactor": 0.20000000298023224
      }
    }
  ],
  "meshes": [
    {
      "name": "Cube.001_0",
      "primitives": [
        {
          "attributes": {
            "NORMAL": 1,
            "POSITION": 0
          },
          "indices": 2,
          "material": 4,
          "mode": 4
        }
      ]
    },
    {
      "name": "Cube.001_1",
      "primitives": [
        {
          "attributes": {
            "NORMAL": 4,
            "POSITION": 3
          },
          "indices": 5,
          "material": 5,
          "mode": 4
        }
      ]
    },
    {
      "name": "Plane_0",
      "primitives": [
        {
          "attributes": {
            "NORMAL": 7,
            "POSITION": 6
          },
          "indices": 8,
          "material": 2,
          "mode": 4
        }
      ]
    },
    {
      "name": "Plane_1",
      "primitives": [
        {
          "attributes": {
            "NORMAL": 10,
            "POSITION": 9
          },
          "indices": 11,
          "material": 3,
          "mode": 4
        }
      ]
    },
    {
      "name": "Cube_0",
      "primitives": [
        {
          "attributes": {
            "NORMAL": 13,
            "POSITION": 12
          },
          "indices": 14,
          "material": 0,
          "mode": 4
        }
      ]
    },
    {
      "name": "Cube_1",
      "primitives": [
        {
          "attributes": {
            "NORMAL": 16,
            "POSITION": 15
          },
          "indices": 17,
          "material": 1,
          "mode": 4
        }
      ]
    }
  ],
  "nodes": [
    {
      "children": [
        1
      ],
      "matrix": [
        182.87606811523438,
        0.0,
        0.0,
        0.0,
        0.0,
        4.060664429489033e-14,
        -182.87606811523438,
        0.0,
        0.0,
        182.87606811523438,
        4.060664429489033e-14,
        0.0,
        0.0,
        0.0,
        0.0,
        1.0
      ],
      "name": "Sketchfab_model"
    },
    {
      "children": [
        2,
        5,
        8
      ],
      "name": "Root"
    },
    {
      "children": [
        3,
        4
      ],
      "matrix": [
        -0.020010000000000003,
        -0.0,
        0.0,
        0.0,
        0.0,
        -0.03214000000000001,
        -0.0,
        0.0,
        0.0,
        -0.0,
        0.22951000000000005,
        0.0,
        4.08309,
        -0.81686,
        0.22910000000000003,
        1.0
      ],
      "name": "Cube.001"
    },
    {
      "mesh": 0,
      "name": "Cube.001_0"
    },
    {
      "mesh": 1,
      "name": "Cube.001_1"
    },
    {
      "children": [
        6,
        7
      ],
      "matrix": [
        4.989560000000001,
        0.0,
        0.0,
        0.0,
        0.0,
        3.1173800000000003,
        0.0,
        0.0,
        0.0,
        0.0,
        2.9529599999999996,
        0.0,
        0.0,
        0.0,
        0.0,
        1.0
      ],
      "name": "Plane"
    },
    {
      "mesh": 2,
      "name": "Plane_0"
    },
    {
      "mesh": 3,
      "name": "Plane_1"
    },
    {
      "children": [
        9,
        10
      ],
      "matrix": [
        0.020010000000000003,
        0.0,
        0.0,
        0.0,
        0.0,
        0.03214000000000001,
        -0.0,
        0.0,
        0.0,
        0.0,
        0.22951000000000005,
        0.0,
        -4.08278,
        0.7788400000000001,
        0.22910000000000003,
        1.0
      ],
      "name": "Cube"
    },
    {
      "mesh": 4,
      "name": "Cube_0"
    },
    {
      "mesh": 5,
      "name": "Cube_1"
    }
  ],
  "scene": 0,
  "scenes": [
    {
      "name": "Sketchfab_Scene",
      "nodes": [
        0
      ]
    }
  ]
}
