{
  "accessors": [
    {
      "bufferView": 2,
      "componentType": 5126,
      "count": 65532,
      "max": [
        18.81714630126953,
        12.872912406921387,
        0.09271597862243652
      ],
      "min": [
        -19.426815032958984,
        -18.091880798339844,
        -0.7315165996551514
      ],
      "type": "VEC3"
    },
    {
      "bufferView": 2,
      "byteOffset": 786384,
      "componentType": 5126,
      "count": 65532,
      "max": [
        0.9985620379447937,
        0.9996569156646729,
        0.9999995231628418
      ],
      "min": [
        -0.9940221309661865,
        -0.9992268681526184,
        -0.9980462193489075
      ],
      "type": "VEC3"
    },
    {
      "bufferView": 1,
      "componentType": 5126,
      "count": 65532,
      "max": [
        0.9998779892921448,
        0.9993900060653687
      ],
      "min": [
        0.00012199999764561653,
        0.00012199999764561653
      ],
      "type": "VEC2"
    },
    {
      "bufferView": 0,
      "componentType": 5125,
      "count": 241386,
      "type": "SCALAR"
    },
    {
      "bufferView": 2,
      "byteOffset": 1572768,
      "componentType": 5126,
      "count": 65532,
      "max": [
        16.963064193725586,
        19.27271270751953,
        0.7750413417816162
      ],
      "min": [
        -18.53849220275879,
        -17.205936431884766,
        -0.6770119667053223
      ],
      "type": "VEC3"
    },
    {
      "bufferView": 2,
      "byteOffset": 2359152,
      "componentType": 5126,
      "count": 65532,
      "max": [
        0.9999420642852783,
        0.9988301992416382,
        0.9999958276748657
      ],
      "min": [
        -0.9986168742179871,
        -0.9996935725212097,
        -0.9975900650024414
      ],
      "type": "VEC3"
    },
    {
      "bufferView": 1,
      "byteOffset": 524256,
      "componentType": 5126,
      "count": 65532,
      "max": [
        0.9998779892921448,
        0.9984130263328552
      ],
      "min": [
        0.00012199999764561653,
        0.00012199999764561653
      ],
      "type": "VEC2"
    },
    {
      "bufferView": 0,
      "byteOffset": 965544,
      "componentType": 5125,
      "count": 216078,
      "type": "SCALAR"
    },
    {
      "bufferView": 2,
      "byteOffset": 3145536,
      "componentType": 5126,
      "count": 65532,
      "max": [
        13.229345321655273,
        16.901424407958984,
        0.7449386119842529
      ],
      "min": [
        -19.02211570739746,
        -19.267711639404297,
        -0.7360653877258301
      ],
      "type": "VEC3"
    },
    {
      "bufferView": 2,
      "byteOffset": 3931920,
      "componentType": 5126,
      "count": 65532,
      "max": [
        0.999484658241272,
        0.9996649622917175,
        0.9999967813491821
      ],
      "min": [
        -0.9992045760154724,
        -0.9996607899665833,
        -0.9938684701919556
      ],
      "type": "VEC3"
    },
    {
      "bufferView": 1,
      "byteOffset": 1048512,
      "componentType": 5126,
      "count": 65532,
      "max": [
        0.9998779892921448,
        0.9998779892921448
      ],
      "min": [
        0.00012199999764561653,
        0.00012199999764561653
      ],
      "type": "VEC2"
    },
    {
      "bufferView": 0,
      "byteOffset": 1829856,
      "componentType": 5125,
      "count": 203223,
      "type": "SCALAR"
    },
    {
      "bufferView": 2,
      "byteOffset": 4718304,
      "componentType": 5126,
      "count": 65532,
      "max": [
        18.766571044921875,
        18.12301254272461,
        0.7978160381317139
      ],
      "min": [
        -14.54295539855957,
        -19.08267593383789,
        -0.7372221946716309
      ],
      "type": "VEC3"
    },
    {
      "bufferView": 2,
      "byteOffset": 5504688,
      "componentType": 5126,
      "count": 65532,
      "max": [
        0.9997050762176514,
        0.9999479651451111,
        0.9999963641166687
      ],
      "min": [
        -0.9997766613960266,
        -0.9999570846557617,
        -0.9992720484733582
      ],
      "type": "VEC3"
    },
    {
      "bufferView": 1,
      "byteOffset": 1572768,
      "componentType": 5126,
      "count": 65532,
      "max": [
        0.9998779892921448,
        0.9998779892921448
      ],
      "min": [
        0.00012199999764561653,
        0.00012199999764561653
      ],
      "type": "VEC2"
    },
    {
      "bufferView": 0,
      "byteOffset": 2642748,
      "componentType": 5125,
      "count": 191268,
      "type": "SCALAR"
    },
    {
      "bufferView": 2,
      "byteOffset": 6291072,
      "componentType": 5126,
      "count": 65532,
      "max": [
        19.3549861907959,
        19.27271270751953,
        0.5433344841003418
      ],
      "min": [
        -19.07695770263672,
        -17.325702667236328,
        -0.7572345733642578
      ],
      "type": "VEC3"
    },
    {
      "bufferView": 2,
      "byteOffset": 7077456,
      "componentType": 5126,
      "count": 65532,
      "max": [
        0.9998461604118347,
        0.9996495842933655,
        0.9999997019767761
      ],
      "min": [
        -0.9997921586036682,
        -0.9983928203582764,
        -0.9994440674781799
      ],
      "type": "VEC3"
    },
    {
      "bufferView": 1,
      "byteOffset": 2097024,
      "componentType": 5126,
      "count": 65532,
      "max": [
        0.9998779892921448,
        0.9998779892921448
      ],
      "min": [
        0.00012199999764561653,
        0.00012199999764561653
      ],
      "type": "VEC2"
    },
    {
      "bufferView": 0,
      "byteOffset": 3407820,
      "componentType": 5125,
      "count": 172305,
      "type": "SCALAR"
    },
    {
      "bufferView": 2,
      "byteOffset": 7863840,
      "componentType": 5126,
      "count": 35567,
      "max": [
        14.32365894317627,
        19.030445098876953,
        0.44358325004577637
      ],
      "min": [
        -16.058977127075195,
        -14.463362693786621,
        -0.7890615463256836
      ],
      "type": "VEC3"
    },
    {
      "bufferView": 2,
      "byteOffset": 8290644,
      "componentType": 5126,
      "count": 35567,
      "max": [
        0.9990963935852051,
        0.9998244047164917,
        0.9999982714653015
      ],
      "min": [
        -0.9992084503173828,
        -0.9990963935852051,
        -0.9918001294136047
      ],
      "type": "VEC3"
    },
    {
      "bufferView": 1,
      "byteOffset": 2621280,
      "componentType": 5126,
      "count": 35567,
      "max": [
        0.9998779892921448,
        0.9998779892921448
      ],
      "min": [
        0.00012199999764561653,
        0.00012199999764561653
      ],
      "type": "VEC2"
    },
    {
      "bufferView": 0,
      "byteOffset": 4097040,
      "componentType": 5125,
      "count": 84441,
      "type": "SCALAR"
    },
    {
      "bufferView": 2,
      "byteOffset": 8717448,
      "componentType": 5126,
      "count": 65533,
      "max": [
        19.343917846679688,
        14.32192325592041,
        0.08661675453186035
      ],
      "min": [
        -19.283775329589844,
        -18.069454193115234,
        -0.7727324962615967
      ],
      "type": "VEC3"
    },
    {
      "bufferView": 2,
      "byteOffset": 9503844,
      "componentType": 5126,
      "count": 65533,
      "max": [
        0.9995771050453186,
        0.9996569156646729,
        0.9999979734420776
      ],
      "min": [
        -0.9978725910186768,
        -0.9986013174057007,
        -0.9980462193489075
      ],
      "type": "VEC3"
    },
    {
      "bufferView": 1,
      "byteOffset": 2905816,
      "componentType": 5126,
      "count": 65533,
      "max": [
        1.9998780488967896,
        0.9222409725189209
      ],
      "min": [
        1.0001219511032104,
        0.00012199999764561653
      ],
      "type": "VEC2"
    },
    {
      "bufferView": 0,
      "byteOffset": 4434804,
      "componentType": 5125,
      "count": 148980,
      "type": "SCALAR"
    },
    {
      "bufferView": 2,
      "byteOffset": 10290240,
      "componentType": 5126,
      "count": 65532,
      "max": [
        16.626995086669922,
        18.671043395996094,
        0.7750413417816162
      ],
      "min": [
        -17.55179786682129,
        -12.041949272155762,
        -0.7546422481536865
      ],
      "type": "VEC3"
    },
    {
      "bufferView": 2,
      "byteOffset": 11076624,
      "componentType": 5126,
      "count": 65532,
      "max": [
        0.9999420642852783,
        0.9996508359909058,
        0.9999983906745911
      ],
      "min": [
        -0.9991080164909363,
        -0.9997565150260925,
        -0.9975900650024414
      ],
      "type": "VEC3"
    },
    {
      "bufferView": 1,
      "byteOffset": 3430080,
      "componentType": 5126,
      "count": 65532,
      "max": [
        1.9998780488967896,
        0.9173579812049866
      ],
      "min": [
        1.0001219511032104,
        0.00012199999764561653
      ],
      "type": "VEC2"
    },
    {
      "bufferView": 0,
      "byteOffset": 5030724,
      "componentType": 5125,
      "count": 120156,
      "type": "SCALAR"
    },
    {
      "bufferView": 2,
      "byteOffset": 11863008,
      "componentType": 5126,
      "count": 65532,
      "max": [
        15.060199737548828,
        19.10578155517578,
        0.4813883304595947
      ],
      "min": [
        -18.41712188720703,
        -14.50227165222168,
        -0.797816276550293
      ],
      "type": "VEC3"
    },
    {
      "bufferView": 2,
      "byteOffset": 12649392,
      "componentType": 5126,
      "count": 65532,
      "max": [
        0.9998893141746521,
        0.9990760087966919,
        0.9999949932098389
      ],
      "min": [
        -0.9992507696151733,
        -0.9996607899665833,
        -0.9981069564819336
      ],
      "type": "VEC3"
    },
    {
      "bufferView": 1,
      "byteOffset": 3954336,
      "componentType": 5126,
      "count": 65532,
      "max": [
        1.9998780488967896,
        0.9188230037689209
      ],
      "min": [
        1.0001219511032104,
        0.00012199999764561653
      ],
      "type": "VEC2"
    },
    {
      "bufferView": 0,
      "byteOffset": 5511348,
      "componentType": 5125,
      "count": 126183,
      "type": "SCALAR"
    },
    {
      "bufferView": 2,
      "byteOffset": 13435776,
      "componentType": 5126,
      "count": 65532,
      "max": [
        18.885377883911133,
        18.126983642578125,
        0.6502771377563477
      ],
      "min": [
        -18.491039276123047,
        -19.140003204345703,
        -0.7474143505096436
      ],
      "type": "VEC3"
    },
    {
      "bufferView": 2,
      "byteOffset": 14222160,
      "componentType": 5126,
      "count": 65532,
      "max": [
        0.9997050762176514,
        0.9968711733818054,
        0.999993622303009
      ],
      "min": [
        -0.9997766613960266,
        -0.9999570846557617,
        -0.9992720484733582
      ],
      "type": "VEC3"
    },
    {
      "bufferView": 1,
      "byteOffset": 4478592,
      "componentType": 5126,
      "count": 65532,
      "max": [
        1.9998780488967896,
        0.919310986995697
      ],
      "min": [
        1.0001219511032104,
        0.00012199999764561653
      ],
      "type": "VEC2"
    },
    {
      "bufferView": 0,
      "byteOffset": 6016080,
      "componentType": 5125,
      "count": 107679,
      "type": "SCALAR"
    },
    {
      "bufferView": 2,
      "byteOffset": 15008544,
      "componentType": 5126,
      "count": 65532,
      "max": [
        19.426815032958984,
        19.261825561523438,
        0.7978160381317139
      ],
      "min": [
        -19.181819915771484,
        -19.27271270751953,
        -0.7625083923339844
      ],
      "type": "VEC3"
    },
    {
      "bufferView": 2,
      "byteOffset": 15794928,
      "componentType": 5126,
      "count": 65532,
      "max": [
        0.9998049736022949,
        0.9996495842933655,
        0.9999975562095642
      ],
      "min": [
        -0.9993974566459656,
        -0.9985333681106567,
        -0.9994440674781799
      ],
      "type": "VEC3"
    },
    {
      "bufferView": 1,
      "byteOffset": 5002848,
      "componentType": 5126,
      "count": 65532,
      "max": [
        1.9998780488967896,
        0.919310986995697
      ],
      "min": [
        1.0001219511032104,
        0.00012199999764561653
      ],
      "type": "VEC2"
    },
    {
      "bufferView": 0,
      "byteOffset": 6446796,
      "componentType": 5125,
      "count": 117405,
      "type": "SCALAR"
    },
    {
      "bufferView": 2,
      "byteOffset": 16581312,
      "componentType": 5126,
      "count": 44453,
      "max": [
        18.113861083984375,
        14.008566856384277,
        0.24237489700317383
      ],
      "min": [
        -14.645983695983887,
        -17.32583999633789,
        -0.7388842105865479
      ],
      "type": "VEC3"
    },
    {
      "bufferView": 2,
      "byteOffset": 17114748,
      "componentType": 5126,
      "count": 44453,
      "max": [
        0.9998461604118347,
        0.999445915222168,
        0.9999922513961792
      ],
      "min": [
        -0.9997921586036682,
        -0.9983928203582764,
        -0.9992004036903381
      ],
      "type": "VEC3"
    },
    {
      "bufferView": 1,
      "byteOffset": 5527104,
      "componentType": 5126,
      "count": 44453,
      "max": [
        1.9998780488967896,
        0.9197999835014343
      ],
      "min": [
        1.0001219511032104,
        0.00012199999764561653
      ],
      "type": "VEC2"
    },
    {
      "bufferView": 0,
      "byteOffset": 6916416,
      "componentType": 5125,
      "count": 70896,
      "type": "SCALAR"
    }
  ],
  "asset": {
    "extras": {
      "author": "3dhdscan (https://sketchfab.com/3dhdscan)",
      "license": "CC-BY-4.0 (http://creativecommons.org/licenses/by/4.0/)",
      "source": "https://sketchfab.com/3d-models/forest-ground-600k-raw-scan-6458e0f109ac4a5da88eeb9869dc1e09",
      "title": "forest ground 600k raw scan"
    },
    "generator": "Sketchfab-12.67.0",
    "version": "2.0"
  },
  "bufferViews": [
    {
      "buffer": 0,
      "byteLength": 7200000,
      "name": "floatBufferViews",
      "target": 34963
    },
    {
      "buffer": 0,
      "byteLength": 5882728,
      "byteOffset": 7200000,
      "byteStride": 8,
      "name": "floatBufferViews",
      "target": 34962
    },
    {
      "buffer": 0,
      "byteLength": 17648184,
      "byteOffset": 13082728,
      "byteStride": 12,
      "name": "floatBufferViews",
      "target": 34962
    }
  ],
  "buffers": [
    {
      "byteLength": 30730912,
      "uri": "scene.bin"
    }
  ],
  "extensionsUsed": [
    "KHR_materials_unlit"
  ],
  "images": [
    {
      "uri": "textures/ground_close_25_600k_Material_u1_v1_baseColor.jpeg"
    },
    {
      "uri": "textures/ground_close_25_600k_Material_u2_v1_baseColor.jpeg"
    }
  ],
  "materials": [
    {
      "extensions": {
        "KHR_materials_unlit": {}
      },
      "name": "ground_close_25_600k_Material_u1_v1",
      "pbrMetallicRoughness": {
        "baseColorTexture": {
          "index": 0
        },
        "metallicFactor": 0.0
      }
    },
    {
      "extensions": {
        "KHR_materials_unlit": {}
      },
      "name": "ground_close_25_600k_Material_u2_v1",
      "pbrMetallicRoughness": {
        "baseColorTexture": {
          "index": 1
        },
        "metallicFactor": 0.0
      }
    }
  ],
  "meshes": [
    {
      "name": "600k_raw_scan_ground_close_25_600k_Material_u1_v1_0",
      "primitives": [
        {
          "attributes": {
            "NORMAL": 1,
            "POSITION": 0,
            "TEXCOORD_0": 2
          },
          "indices": 3,
          "material": 0,
          "mode": 4
        }
      ]
    },
    {
      "name": "600k_raw_scan_ground_close_25_600k_Material_u1_v1_0",
      "primitives": [
        {
          "attributes": {
            "NORMAL": 5,
            "POSITION": 4,
            "TEXCOORD_0": 6
          },
          "indices": 7,
          "material": 0,
          "mode": 4
        }
      ]
    },
    {
      "name": "600k_raw_scan_ground_close_25_600k_Material_u1_v1_0",
      "primitives": [
        {
          "attributes": {
            "NORMAL": 9,
            "POSITION": 8,
            "TEXCOORD_0": 10
          },
          "indices": 11,
          "material": 0,
          "mode": 4
        }
      ]
    },
    {
      "name": "600k_raw_scan_ground_close_25_600k_Material_u1_v1_0",
      "primitives": [
        {
          "attributes": {
            "NORMAL": 13,
            "POSITION": 12,
            "TEXCOORD_0": 14
          },
          "indices": 15,
          "material": 0,
          "mode": 4
        }
      ]
    },
    {
      "name": "600k_raw_scan_ground_close_25_600k_Material_u1_v1_0",
      "primitives": [
        {
          "attributes": {
            "NORMAL": 17,
            "POSITION": 16,
            "TEXCOORD_0": 18
          },
          "indices": 19,
          "material": 0,
          "mode": 4
        }
      ]
    },
    {
      "name": "600k_raw_scan_ground_close_25_600k_Material_u1_v1_0",
      "primitives": [
        {
          "attributes": {
            "NORMAL": 21,
            "POSITION": 20,
            "TEXCOORD_0": 22
          },
          "indices": 23,
          "material": 0,
          "mode": 4
        }
      ]
    },
    {
      "name": "600k_raw_scan_ground_close_25_600k_Material_u2_v1_0",
      "primitives": [
        {
          "attributes": {
            "NORMAL": 25,
            "POSITION": 24,
            "TEXCOORD_0": 26
          },
          "indices": 27,
          "material": 1,
          "mode": 4
        }
      ]
    },
    {
      "name": "600k_raw_scan_ground_close_25_600k_Material_u2_v1_0",
      "primitives": [
        {
          "attributes": {
            "NORMAL": 29,
            "POSITION": 28,
            "TEXCOORD_0": 30
          },
          "indices": 31,
          "material": 1,
          "mode": 4
        }
      ]
    },
    {
      "name": "600k_raw_scan_ground_close_25_600k_Material_u2_v1_0",
      "primitives": [
        {
          "attributes": {
            "NORMAL": 33,
            "POSITION": 32,
            "TEXCOORD_0": 34
          },
          "indices": 35,
          "material": 1,
          "mode": 4
        }
      ]
    },
    {
      "name": "600k_raw_scan_ground_close_25_600k_Material_u2_v1_0",
      "primitives": [
        {
          "attributes": {
            "NORMAL": 37,
            "POSITION": 36,
            "TEXCOORD_0": 38
          },
          "indices": 39,
          "material": 1,
          "mode": 4
        }
      ]
    },
    {
      "name": "600k_raw_scan_ground_close_25_600k_Material_u2_v1_0",
      "primitives": [
        {
          "attributes": {
            "NORMAL": 41,
            "POSITION": 40,
            "TEXCOORD_0": 42
          },
          "indices": 43,
          "material": 1,
          "mode": 4
        }
      ]
    },
    {
      "name": "600k_raw_scan_ground_close_25_600k_Material_u2_v1_0",
      "primitives": [
        {
          "attributes": {
            "NORMAL": 45,
            "POSITION": 44,
            "TEXCOORD_0": 46
          },
          "indices": 47,
          "material": 1,
          "mode": 4
        }
      ]
    }
  ],
  "nodes": [
    {
      "children": [
        1
      ],
      "matrix": [
        1.0,
        0.0,
        0.0,
        0.0,
        0.0,
        2.220446049250313e-16,
        -1.0,
        0.0,
        0.0,
        1.0,
        2.220446049250313e-16,
        0.0,
        0.0,
        0.0,
        0.0,
        1.0
      ],
      "name": "Sketchfab_model"
    },
    {
      "children": [
        2
      ],
      "matrix": [
        1.0,
        0.0,
        0.0,
        0.0,
        0.0,
        0.0,
        1.0,
        0.0,
        0.0,
        -1.0,
        0.0,
        0.0,
        0.0,
        0.0,
        0.0,
        1.0
      ],
      "name": "600k_raw_scan.FBX"
    },
    {
      "children": [
        3
      ],
      "name": "RootNode"
    },
    {
      "children": [
        4,
        5,
        6,
        7,
        8,
        9,
        10,
        11,
        12,
        13,
        14,
        15
      ],
      "matrix": [
        1.0,
        0.0,
        0.0,
        0.0,
        0.0,
        2.220446049250313e-16,
        -1.0,
        0.0,
        0.0,
        1.0,
        2.220446049250313e-16,
        0.0,
        0.9945259094238281,
        3.02530574798584,
        -2.9875192642211914,
        1.0
      ],
      "name": "600k_raw_scan"
    },
    {
      "mesh": 0,
      "name": "600k_raw_scan_ground_close_25_600k_Material_u1_v1_0"
    },
    {
      "mesh": 1,
      "name": "600k_raw_scan_ground_close_25_600k_Material_u1_v1_0"
    },
    {
      "mesh": 2,
      "name": "600k_raw_scan_ground_close_25_600k_Material_u1_v1_0"
    },
    {
      "mesh": 3,
      "name": "600k_raw_scan_ground_close_25_600k_Material_u1_v1_0"
    },
    {
      "mesh": 4,
      "name": "600k_raw_scan_ground_close_25_600k_Material_u1_v1_0"
    },
    {
      "mesh": 5,
      "name": "600k_raw_scan_ground_close_25_600k_Material_u1_v1_0"
    },
    {
      "mesh": 6,
      "name": "600k_raw_scan_ground_close_25_600k_Material_u2_v1_0"
    },
    {
      "mesh": 7,
      "name": "600k_raw_scan_ground_close_25_600k_Material_u2_v1_0"
    },
    {
      "mesh": 8,
      "name": "600k_raw_scan_ground_close_25_600k_Material_u2_v1_0"
    },
    {
      "mesh": 9,
      "name": "600k_raw_scan_ground_close_25_600k_Material_u2_v1_0"
    },
    {
      "mesh": 10,
      "name": "600k_raw_scan_ground_close_25_600k_Material_u2_v1_0"
    },
    {
      "mesh": 11,
      "name": "600k_raw_scan_ground_close_25_600k_Material_u2_v1_0"
    }
  ],
  "samplers": [
    {
      "magFilter": 9729,
      "minFilter": 9987,
      "wrapS": 10497,
      "wrapT": 10497
    }
  ],
  "scene": 0,
  "scenes": [
    {
      "name": "Sketchfab_Scene",
      "nodes": [
        0
      ]
    }
  ],
  "textures": [
    {
      "sampler": 0,
      "source": 0
    },
    {
      "sampler": 0,
      "source": 1
    }
  ]
}
